<svg xmlns="http://www.w3.org/2000/svg" width="236" height="85" viewBox="0 0 236 85"><g><g><g><g><path fill="#1385b3" d="M0 83.705V14.34h14.792v69.366z"/></g><g><path fill="#d71c1c" d="M35.402 84.333l-5.4-83.138L48.393 0l5.401 83.138z"/></g><g><path fill="#cdcb12" d="M20.888 84.18L9.128 25.36l23.415-4.68L44.302 79.5z"/></g></g><g><g><path fill="#fff" d="M24.188 41.287c3.988 0 6.81 1.71 8.468 5.127l-17.945 3.419c.26-2.59 1.268-4.663 3.03-6.215 1.761-1.553 3.91-2.33 6.447-2.33zm17.557 9.555c-.103-4.867-1.813-8.946-5.127-12.235-3.315-3.29-7.458-4.933-12.43-4.933-4.971 0-9.14 1.696-12.506 5.088-3.367 3.392-5.05 7.55-5.05 12.469 0 4.971 1.657 9.14 4.972 12.507 3.314 3.365 7.613 5.05 12.896 5.05 2.07 0 4.026-.312 5.865-.933 1.838-.623 3.288-1.31 4.35-2.06a17.3 17.3 0 0 0 2.913-2.602c.88-.982 1.437-1.669 1.67-2.058.233-.388.401-.686.504-.893l-6.99-3.573-.778 1.086c-.466.777-1.373 1.541-2.718 2.292-1.347.752-2.901 1.127-4.662 1.127-1.916 0-3.677-.48-5.282-1.437a9.363 9.363 0 0 1-3.65-3.923z"/></g></g><g><g><path fill="#3b3c3e" d="M77.384 40.65l-8.51 11.789 8.902 12.032h-4.842l-8.707-12.032 8.413-11.79zM59.09 64.47V40.354l4.11-.587v24.705z"/></g><g><path fill="#3b3c3e" d="M130.47 45.68v18.79h4.01V40.839h-5.772l-10.707 18.936V40.838h-4.01V64.47h5.771z"/></g><g><g><path fill="#3b3c3e" d="M138.113 40.65l8.509 11.789-8.901 12.032h4.841l8.707-12.032-8.412-11.79z"/></g><g><path fill="#3b3c3e" d="M170.687 40.65l-8.51 11.789 8.902 12.032h-4.841l-8.707-12.032 8.412-11.79zm-18.293 23.82V40.457l4.11-.588v24.603z"/></g></g><g><path fill="#3b3c3e" d="M187.072 59.481c-1.809 1.175-4.107 1.957-6.161 1.957-2.936 0-3.375-.977-3.375-3.423 0-2.398.93-3.18 3.472-3.18h6.064zm4.11-11.591c0-5.087-2.251-7.728-9.05-7.728-2.543 0-5.575.44-7.824 1.027l.44 3.277c1.858-.391 4.841-.783 7.14-.783 3.865 0 5.184 1.027 5.184 4.012v3.717h-6.358c-4.792 0-7.288 1.76-7.288 6.7 0 4.207 1.86 6.848 6.31 6.848 2.886 0 5.624-.782 7.728-2.25l.245 1.76h3.473z"/></g><g><path fill="#3b3c3e" d="M200.135 46.618c1.759-1.566 4.401-2.838 6.748-2.838 2.885 0 3.67 1.224 3.67 3.67v9.733c0 2.885-1.127 4.157-3.865 4.157-1.664 0-4.353-.292-6.553-.734zm14.525.832c0-4.794-2.249-7.288-6.945-7.288-3.13 0-5.919 1.075-7.875 2.641l-.342-2.153h-3.473v34.043l4.11-.587v-9.88c1.906.391 4.694.734 6.798.734 5.575 0 7.727-3.033 7.727-7.777z"/></g><g><path fill="#3b3c3e" d="M231.845 59.481c-1.808 1.175-4.108 1.957-6.16 1.957-2.936 0-3.376-.977-3.376-3.423 0-2.398.93-3.18 3.472-3.18h6.064zm4.11-11.591c0-5.087-2.25-7.728-9.049-7.728-2.543 0-5.576.44-7.825 1.027l.44 3.277c1.858-.391 4.842-.783 7.14-.783 3.865 0 5.184 1.027 5.184 4.012v3.717h-6.358c-4.792 0-7.287 1.76-7.287 6.7 0 4.207 1.858 6.848 6.31 6.848 2.885 0 5.624-.782 7.727-2.25l.245 1.76h3.472z"/></g><g><g><path fill="#3b3c3e" d="M95.823 64.47v-10.3H85.224v10.3h-4.207V40.342h4.207v10.312h10.6V40.341h4.206v24.13z"/></g><g><path fill="#3b3c3e" d="M101.806 50.653h-3.392v3.426h3.245c4.012 0 5.732.592 5.732 3.16v.645c0 3.081-1.72 3.16-5.732 3.16h-3.245v3.427h3.392c6.995 0 9.623-1.947 9.623-6.71v-.353c0-4.81-2.628-6.755-9.623-6.755z"/></g></g></g></g></g></svg>