<?xml version="1.0" encoding="utf-8"?>
<!-- Generator: Adobe Illustrator 28.0.0, SVG Export Plug-In . SVG Version: 6.00 Build 0)  -->
<svg version="1.1" id="Layer_1" xmlns="http://www.w3.org/2000/svg" xmlns:xlink="http://www.w3.org/1999/xlink" x="0px" y="0px"
	 viewBox="0 0 630 76" style="enable-background:new 0 0 630 76;" xml:space="preserve">
<style type="text/css">
	.st0{clip-path:url(#SVGID_00000027562221356699981460000003694872649519195324_);fill:#0194BF;}
	.st1{fill:#FFFFFF;}
	
		.st2{clip-path:url(#SVGID_00000110447446886100781790000006482335442150095255_);fill:none;stroke:#231F20;stroke-width:1.207;stroke-miterlimit:10;}
	.st3{fill:#EE3524;}
	
		.st4{clip-path:url(#SVGID_00000023995058331021222260000001469145555579638462_);fill:none;stroke:#EE3524;stroke-width:1.207;stroke-miterlimit:10;}
	.st5{clip-path:url(#SVGID_00000023995058331021222260000001469145555579638462_);fill:#FFFFFF;}
	.st6{clip-path:url(#SVGID_00000144314255491974196120000003951599402961677972_);fill:#FFFFFF;}
	.st7{clip-path:url(#SVGID_00000144314255491974196120000003951599402961677972_);fill:#006991;}
	.st8{clip-path:url(#SVGID_00000144314255491974196120000003951599402961677972_);fill:#CBD523;}
	.st9{clip-path:url(#SVGID_00000144314255491974196120000003951599402961677972_);fill:#231F20;}
	.st10{fill:#231F20;}
</style>
<g>
	<g>
		<defs>
			<rect id="SVGID_1_" x="6.28" y="1" width="611.43" height="74"/>
		</defs>
		<clipPath id="SVGID_00000070820600548340800720000009257402773430319511_">
			<use xlink:href="#SVGID_1_"  style="overflow:visible;"/>
		</clipPath>
		<path style="clip-path:url(#SVGID_00000070820600548340800720000009257402773430319511_);fill:#0194BF;" d="M496.82,44.91V22.51
			c4.23,0.28,8.53,3.12,8.53,11.24C505.35,41.5,501.09,44.58,496.82,44.91 M493.12,44.91c-4.36-0.47-8.57-3.63-8.57-11.11
			c0-8.22,4.71-11.08,8.57-11.29V44.91z M496.87,19.62v-2.85h-3.71v2.85c-5.72,0.36-12.58,4-12.58,14.32
			c0,9.94,6.3,13.49,12.5,13.92v2.93h3.69v-2.93c6.29-0.44,12.54-4.16,12.54-14.12C509.31,23.85,503.07,19.89,496.87,19.62"/>
		<path style="clip-path:url(#SVGID_00000070820600548340800720000009257402773430319511_);fill:#0194BF;" d="M523.92,46.77
			c-2.73,0-5.11-1.96-5.77-4.8c-0.13-0.52-0.17-1.12-0.17-1.69v-3.92c0-0.51,0.13-1.12,0.22-1.64c0.75-3.12,3.26-5.09,5.89-5.09
			c4.09,0,6.3,3.87,6.3,8.4C530.39,43.24,528.01,46.77,523.92,46.77 M525.24,26.37c-3.43,0-5.98,1.59-7.52,4.39h-0.09l-0.21-3.88
			h-3.47c0.13,2.15,0.17,4.48,0.17,7.37v24.47h3.87V46.44h0.09c1.27,2.25,3.69,3.56,6.56,3.56c4.96,0,9.67-4.02,9.67-12.14
			C534.3,31,530.43,26.37,525.24,26.37"/>
		<path style="clip-path:url(#SVGID_00000070820600548340800720000009257402773430319511_);fill:#0194BF;" d="M541.38,35.99
			c0.31-2.84,1.98-6.67,5.94-6.67c4.31,0,5.36,4.06,5.31,6.67H541.38z M547.64,26.37c-6.2,0-10.04,5.37-10.04,12.19
			c0,6.77,3.96,11.39,10.47,11.39c3.4,0,5.77-0.78,7.14-1.45l-0.7-2.93c-1.42,0.64-3.13,1.15-5.89,1.15c-3.88,0-7.17-2.29-7.26-7.78
			h14.91c0.09-0.47,0.12-1.09,0.12-1.92C556.38,32.86,554.59,26.37,547.64,26.37"/>
		<path style="clip-path:url(#SVGID_00000070820600548340800720000009257402773430319511_);fill:#0194BF;" d="M571.08,29.64
			c2.12,0,3.57,0.56,4.49,1.08l0.88-3.13c-1.05-0.6-3.08-1.22-5.37-1.22c-6.94,0-11.43,5.09-11.43,12.04
			c0,6.92,4.18,11.54,10.61,11.54c2.85,0,5.09-0.78,6.11-1.3l-0.66-3.08c-1.1,0.51-2.55,1.06-4.75,1.06c-4.22,0-7.39-3.21-7.39-8.45
			C563.56,33.52,566.2,29.64,571.08,29.64"/>
		<path style="clip-path:url(#SVGID_00000070820600548340800720000009257402773430319511_);fill:#0194BF;" d="M589.08,37.06
			l9.28-10.17h-4.7l-8.01,9.81h-0.89v-9.81h-3.86v22.6h3.86v-9.94h0.76c3.56,0,5.54,1.68,6.99,5.32c0.71,1.86,1.41,3.64,1.98,4.62
			h4.04c-0.96-1.82-1.67-4.01-2.24-5.5C594.61,39.92,592.55,37.48,589.08,37.06"/>
		<path style="clip-path:url(#SVGID_00000070820600548340800720000009257402773430319511_);fill:#0194BF;" d="M613.62,41.88
			c0,0.41-0.04,0.88-0.18,1.31c-0.6,1.91-2.41,3.78-5.22,3.78c-1.94,0-3.62-1.22-3.62-3.92c0-4.39,4.81-5.19,9.03-5.1V41.88z
			 M617.41,35.62c0-4.53-1.58-9.25-8.14-9.25c-2.69,0-5.29,0.79-7.05,1.97l0.88,2.75c1.49-1.07,3.56-1.67,5.59-1.67
			c4.36-0.05,4.84,3.37,4.84,5.23v0.47c-8.23-0.06-12.8,2.93-12.8,8.4c0,3.26,2.2,6.49,6.5,6.49c3.03,0,5.37-1.58,6.52-3.37h0.12
			l0.36,2.86h3.47c-0.23-1.54-0.31-3.45-0.31-5.41V35.62z"/>
		<path style="clip-path:url(#SVGID_00000070820600548340800720000009257402773430319511_);fill:#0194BF;" d="M467.09,53.57
			c0,0-4.31,4.09-13.77,4.46V43.17c0,0,4.25,0.52,7.99-2.33c4.64-3.55,5.77-6.7,5.77-6.7L467.09,53.57z M451.55,61.47
			c0,0-0.73-2.12-5.37-5.67c-3.74-2.86-7.02-2.5-7.02-2.5V38.2c9.97,1.7,12.39,4.64,12.39,4.64V61.47z M453.08,12.37
			c7.88,0,14.27,6.4,14.27,14.28c0,4.6-2.18,8.69-5.56,11.3c-1.2-1.64-2.84-2.92-4.76-3.68c2.84-1.44,4.78-4.38,4.78-7.78
			c0-4.82-3.91-8.73-8.73-8.73c-4.82,0-8.73,3.91-8.73,8.73c0,3.4,1.94,6.34,4.78,7.78c-1.92,0.76-3.56,2.04-4.76,3.68
			c-3.38-2.61-5.56-6.7-5.56-11.3C438.8,18.77,445.2,12.37,453.08,12.37 M435.7,65.24h35.84V10.76H435.7V65.24z"/>
	</g>
	<rect x="6.89" y="1.6" class="st1" width="75.79" height="72.79"/>
	<g>
		<defs>
			<rect id="SVGID_00000091726536048625026050000009662854921259061417_" x="6.28" y="1" width="611.43" height="74"/>
		</defs>
		<clipPath id="SVGID_00000014602367150360737010000011502794567126418575_">
			<use xlink:href="#SVGID_00000091726536048625026050000009662854921259061417_"  style="overflow:visible;"/>
		</clipPath>
		
			<polyline style="clip-path:url(#SVGID_00000014602367150360737010000011502794567126418575_);fill:none;stroke:#231F20;stroke-width:1.207;stroke-miterlimit:10;" points="
			82.68,74.4 6.89,74.4 6.89,1.6 82.68,1.6 		"/>
	</g>
	<rect x="80.13" y="1.6" class="st3" width="73.2" height="72.79"/>
	<g>
		<defs>
			<rect id="SVGID_00000089553122670424624640000013624064294212364468_" x="6.28" y="1" width="611.43" height="74"/>
		</defs>
		<clipPath id="SVGID_00000048484901526056266650000009768516302160122002_">
			<use xlink:href="#SVGID_00000089553122670424624640000013624064294212364468_"  style="overflow:visible;"/>
		</clipPath>
		
			<rect x="80.13" y="1.6" style="clip-path:url(#SVGID_00000048484901526056266650000009768516302160122002_);fill:none;stroke:#EE3524;stroke-width:1.207;stroke-miterlimit:10;" width="73.2" height="72.79"/>
		<path style="clip-path:url(#SVGID_00000048484901526056266650000009768516302160122002_);fill:#FFFFFF;" d="M150.16,41.85h-4.74
			v9.14c0,2.06,0.51,2.71,1.8,2.71c1.01,0,1.76-0.29,2.74-0.69v2.7c-1.42,0.66-2.35,1-3.85,1c-2.86,0-3.98-1.68-3.98-5.33v-9.53
			h-7.56v9.14c0,2.06,0.51,2.71,1.8,2.71c1,0,1.71-0.33,2.62-0.69v2.76c-1.51,0.7-2.23,0.94-3.78,0.94c-2.79,0-3.98-1.68-3.98-5.33
			v-9.53h-2.92V39.3h2.92l0.06-4.07l3.35-0.61l-0.07,4.69h7.56l0.06-4.07l3.35-0.61l-0.13,4.69h4.74V41.85z"/>
	</g>
	<polygon class="st1" points="107.5,56.51 104.09,56.51 104.09,31.99 107.5,31.37 	"/>
	<polygon class="st1" points="101.2,56.51 96.72,56.51 88.24,45.25 88.14,44.87 87.96,44.94 88.07,45.4 88.07,56.51 84.53,56.51 
		84.53,32.36 88.07,32.36 88.07,42.96 87.97,43.32 88.13,43.32 88.25,42.91 96.6,32.36 100.81,32.36 100.81,32.72 100.64,32.72 
		91.54,43.86 101.03,56.09 101.2,56.09 	"/>
	<g>
		<defs>
			<rect id="SVGID_00000154407271061044264300000004663292152571229630_" x="6.28" y="1" width="611.43" height="74"/>
		</defs>
		<clipPath id="SVGID_00000166636826696948372300000012677963838798271388_">
			<use xlink:href="#SVGID_00000154407271061044264300000004663292152571229630_"  style="overflow:visible;"/>
		</clipPath>
		<path style="clip-path:url(#SVGID_00000166636826696948372300000012677963838798271388_);fill:#FFFFFF;" d="M122.8,45.98
			c-0.13-1.75-0.25-2.38-0.82-3.25c-0.48-0.72-1.4-1.46-2.92-1.46c-0.54,0-1.21,0.14-1.82,0.5c-0.69,0.4-1.31,1.05-1.71,1.94
			c-0.27,0.6-0.4,1.39-0.48,2.27L122.8,45.98z M126.28,48.6h-11.23c0.12,1.3,0.19,1.8,0.51,2.54c0.7,1.67,2.1,2.55,4.21,2.55
			c0.5,0,0.96-0.04,1.52-0.14c1.31-0.23,2.07-0.66,3.33-1.39l0.97,2.71c-0.44,0.27-1.32,0.75-1.88,1.01
			c-1.3,0.6-2.75,0.96-4.26,0.96c-4.99,0-7.94-3.68-7.94-9.16c0-5.48,2.82-8.96,7.81-8.96c2.35,0,3.93,0.79,5.12,2.21
			c1.69,2,1.85,4.82,1.85,6.89V48.6z"/>
		<path style="clip-path:url(#SVGID_00000166636826696948372300000012677963838798271388_);fill:#006991;" d="M48.18,42.27
			c0-1.43,0.07-3.12,0.07-5.07c0-7.8-0.26-18.46-1.17-21.77c-0.33-1.1-1.09-1.36-1.54-1.69c-0.39,0.91-0.52,4.55-0.52,9.75
			c0,12.15,0.92,33.09,1.89,43.62l-2.54,3.1c-1.43-10.85-4.03-36.46-4.03-46.66c0-6.69,7.6-16.77,7.6-16.77s1.74,0.46,3.1,2.47
			c0.72,1.04,1.95,4.61,1.95,13.78c0,7.87-1.02,14.27-1.25,15.65l-0.15,0.34l0.14,0.03l0.18-0.38c4.24-5.52,10.96-6.34,14.41-6.34
			c0,0,0.91,2.14,0.91,6.63c0,9.48-6.88,13.35-11.46,14.11l-0.15-0.1l-0.05,0.11l0.14,0.1c1.79,4.86,7.76,7.22,7.76,7.22l-5.39,5.52
			c-8.51-4.03-9.94-13.52-9.94-13.52s0.45,0.13,1.3,0.13c2.41,0,10.92-1.56,10.92-12.35c0-1.82-0.45-3.31-0.91-3.9
			c-6.24,0.26-9.1,6.24-9.42,9.88C48.44,45.77,48.18,43.57,48.18,42.27"/>
		<path style="clip-path:url(#SVGID_00000166636826696948372300000012677963838798271388_);fill:#006991;" d="M23.72,60.4
			c0,0,12.74-1.82,12.74-13.91c0-10.33-8.84-10.2-8.84-10.2s-0.84,0.72-0.84,4.55c0,8.84,5.65,10.85,6.95,11.05
			c-0.52,0.52-1.3,0.84-2.67,0.84c-4.22,0-11.24-4.84-11.24-13.78c0-4.87,0.91-6.63,0.91-6.63c3.12,0.07,19.63,0.98,19.63,18.78
			c0,11.66-11.31,14.62-11.31,14.62L23.72,60.4z"/>
		<path style="clip-path:url(#SVGID_00000166636826696948372300000012677963838798271388_);fill:#CBD523;" d="M245.26,38
			c0-9.94,8.05-17.99,17.99-17.99c9.93,0,17.99,8.05,17.99,17.99s-8.05,17.99-17.99,17.99c-4.4,0-8.43-1.58-11.55-4.2l6.5-4.22
			c1.51,0.8,3.23,1.25,5.06,1.25c5.98,0,10.82-4.85,10.82-10.82s-4.85-10.82-10.82-10.82c-5.98,0-10.82,4.85-10.82,10.82
			c0,1.42,0.27,2.78,0.77,4.03l-6.08,3.95C245.93,43.57,245.26,40.86,245.26,38"/>
		<path style="clip-path:url(#SVGID_00000166636826696948372300000012677963838798271388_);fill:#CBD523;" d="M314.47,38
			c0-9.94,8.05-17.99,17.99-17.99c9.94,0,17.99,8.05,17.99,17.99s-8.05,17.99-17.99,17.99c-4.17,0-8-1.42-11.05-3.79l6.64-4.31
			c1.35,0.6,2.84,0.94,4.41,0.94c5.98,0,10.82-4.85,10.82-10.82s-4.85-10.82-10.82-10.82c-5.98,0-10.82,4.85-10.82,10.82
			c0,1.64,0.37,3.2,1.02,4.59l-6.05,3.93C315.25,43.98,314.47,41.08,314.47,38"/>
		<path style="clip-path:url(#SVGID_00000166636826696948372300000012677963838798271388_);fill:#231F20;" d="M211.81,55.27
			c2.23,0,4.17-0.65,5.59-1.58c4.5-2.96,5.51-9.16,5.51-16.89v-7.54h8.1v25.48h7.13V23.3h-22.2v14.02c0,8.1-1.14,11.34-5.23,12.07
			L211.81,55.27z"/>
		<path style="clip-path:url(#SVGID_00000166636826696948372300000012677963838798271388_);fill:#231F20;" d="M374.79,28.22
			c-5.52,0.36-9.85,3.81-9.85,10.46c0,6.24,4,10.41,10.96,10.41c1.87,0,3.88-0.27,5.44-0.7l1.93,5.93c-1.6,0.61-4.61,1.22-8.3,1.22
			c-12.14,0-18.08-7.29-18.08-16.4c0-10.09,6.86-16.13,15.87-17.16L374.79,28.22z"/>
	</g>
	<polygon class="st10" points="295.73,54.46 295.73,29.35 310.31,29.35 310.31,23.03 288.36,23.03 288.36,54.46 	"/>
</g>
</svg>
