<?xml version="1.0" encoding="utf-8"?>
<!-- Generator: Adobe Illustrator 28.0.0, SVG Export Plug-In . SVG Version: 6.00 Build 0)  -->
<svg version="1.1" id="Layer_1" xmlns="http://www.w3.org/2000/svg" xmlns:xlink="http://www.w3.org/1999/xlink" x="0px" y="0px"
	 viewBox="0 0 630 76" style="enable-background:new 0 0 630 76;" xml:space="preserve">
<style type="text/css">
	.st0{fill:#2F95BE;}
	.st1{fill:#E23628;}
	.st2{fill:#CDD52A;}
	.st3{fill:#3D8C47;}
	.st4{fill:#BA392F;}
	.st5{clip-path:url(#SVGID_00000151531019366656819310000007294121260349137597_);fill:#FFFFFF;}
	.st6{fill:#231F20;}
	.st7{clip-path:url(#SVGID_00000060032340859836004820000010719053828075127195_);fill:#231F20;}
	.st8{clip-path:url(#SVGID_00000030473998883783751950000014793543033583284916_);fill:#231F20;}
	.st9{clip-path:url(#SVGID_00000030473998883783751950000014793543033583284916_);fill:#CDD52A;}
	.st10{clip-path:url(#SVGID_00000030473998883783751950000014793543033583284916_);fill:#E23628;}
	.st11{clip-path:url(#SVGID_00000030473998883783751950000014793543033583284916_);fill:#2F95BE;}
	.st12{clip-path:url(#SVGID_00000030473998883783751950000014793543033583284916_);fill:#FFFFFF;}
	.st13{clip-path:url(#SVGID_00000034078550141015910630000003411387466687331238_);fill:#231F20;}
	.st14{clip-path:url(#SVGID_00000174570802544748029980000017479327093108229304_);fill:#231F20;}
	.st15{clip-path:url(#SVGID_00000174587683804627813060000004743668990150452876_);fill:#231F20;}
	.st16{clip-path:url(#SVGID_00000090981349744995277720000015545981066663523485_);fill:#231F20;}
	.st17{clip-path:url(#SVGID_00000124849418509231769620000015377045058576828599_);fill:#231F20;}
	.st18{clip-path:url(#SVGID_00000124849418509231769620000015377045058576828599_);}
	.st19{clip-path:url(#SVGID_00000124849418509231769620000015377045058576828599_);fill:#CCD42B;}
	.st20{clip-path:url(#SVGID_00000124849418509231769620000015377045058576828599_);fill:#2E94BD;}
	.st21{clip-path:url(#SVGID_00000124849418509231769620000015377045058576828599_);fill:#FFFFFF;}
	.st22{clip-path:url(#SVGID_00000124849418509231769620000015377045058576828599_);fill:#E03629;}
</style>
<g>
	<rect x="436.88" y="12.4" class="st0" width="11.89" height="55.75"/>
	
		<rect x="463.14" y="1.29" transform="matrix(0.9979 -0.0648 0.0648 0.9979 -1.2642 30.5826)" class="st1" width="14.81" height="66.96"/>
	<polygon class="st2" points="462.02,17.7 448.76,20.35 448.76,44.03 453.66,68.53 465.17,66.23 	"/>
	<polygon class="st3" points="448.76,20.35 444.21,21.26 448.76,44.03 	"/>
	<polygon class="st4" points="463.03,17.5 462.02,17.7 465.17,66.23 472.48,64.77 	"/>
	<g>
		<defs>
			<rect id="SVGID_1_" x="3.49" y="0.88" width="623.02" height="74"/>
		</defs>
		<clipPath id="SVGID_00000091003757212214984350000001850740574234222986_">
			<use xlink:href="#SVGID_1_"  style="overflow:visible;"/>
		</clipPath>
		<path style="clip-path:url(#SVGID_00000091003757212214984350000001850740574234222986_);fill:#FFFFFF;" d="M451.13,35.93
			c-1.42,1.25-2.23,2.91-2.44,4.99l14.42-2.75c-1.33-2.75-3.6-4.12-6.81-4.12C454.28,34.06,452.55,34.69,451.13,35.93 M449.51,45.74
			c0.67,1.33,1.64,2.38,2.93,3.15c1.29,0.77,2.71,1.15,4.25,1.15c1.42,0,2.66-0.3,3.75-0.91c1.08-0.6,1.81-1.22,2.19-1.84l0.62-0.87
			l5.62,2.87c-0.08,0.17-0.22,0.41-0.41,0.72c-0.19,0.31-0.64,0.86-1.34,1.65c-0.71,0.79-1.49,1.49-2.34,2.09
			c-0.85,0.6-2.02,1.15-3.5,1.65s-3.05,0.75-4.71,0.75c-4.25,0-7.7-1.35-10.36-4.06c-2.66-2.71-4-6.06-4-10.05
			c0-3.95,1.35-7.29,4.06-10.02c2.71-2.73,6.06-4.09,10.05-4.09s7.33,1.32,9.99,3.97c2.66,2.64,4.04,5.92,4.12,9.83L449.51,45.74z"
			/>
	</g>
	<path class="st6" d="M499.07,33.55l-6.84,9.47l7.15,9.67h-3.89l-7-9.67l6.76-9.47H499.07z M484.37,52.69V33.31l3.3-0.47v19.85
		H484.37z"/>
	<polygon class="st6" points="541.73,37.59 541.73,52.69 544.95,52.69 544.95,33.7 540.32,33.7 531.71,48.92 531.71,33.7 
		528.49,33.7 528.49,52.69 533.13,52.69 	"/>
	<polygon class="st6" points="547.87,33.55 554.71,43.02 547.56,52.69 551.45,52.69 558.45,43.02 551.69,33.55 	"/>
	<path class="st6" d="M574.05,33.55l-6.84,9.47l7.15,9.67h-3.89l-7-9.67l6.76-9.47H574.05z M559.35,52.69v-19.3l3.3-0.47v19.77
		H559.35z"/>
	<g>
		<defs>
			<rect id="SVGID_00000150801557874870438900000009147587011440965524_" x="3.49" y="0.88" width="623.02" height="74"/>
		</defs>
		<clipPath id="SVGID_00000062160532757691025980000002975607132496625341_">
			<use xlink:href="#SVGID_00000150801557874870438900000009147587011440965524_"  style="overflow:visible;"/>
		</clipPath>
		<path style="clip-path:url(#SVGID_00000062160532757691025980000002975607132496625341_);fill:#231F20;" d="M587.22,44.95h-4.87
			c-2.04,0-2.79,0.63-2.79,2.56c0,1.97,0.35,2.75,2.71,2.75c1.65,0,3.5-0.63,4.95-1.57V44.95z M590.52,52.69h-2.79l-0.2-1.42
			c-1.69,1.18-3.89,1.81-6.21,1.81c-3.58,0-5.07-2.12-5.07-5.5c0-3.97,2.01-5.38,5.86-5.38h5.11v-2.99c0-2.4-1.06-3.22-4.17-3.22
			c-1.85,0-4.25,0.31-5.74,0.63l-0.35-2.63c1.81-0.47,4.24-0.83,6.29-0.83c5.46,0,7.27,2.12,7.27,6.21V52.69z"/>
		<path style="clip-path:url(#SVGID_00000062160532757691025980000002975607132496625341_);fill:#231F20;" d="M597.72,49.59
			c1.77,0.35,3.93,0.59,5.27,0.59c2.2,0,3.11-1.02,3.11-3.34v-7.82c0-1.97-0.63-2.95-2.95-2.95c-1.89,0-4.01,1.02-5.42,2.28V49.59z
			 M609.39,46.84c0,3.81-1.73,6.25-6.21,6.25c-1.69,0-3.93-0.28-5.46-0.59v7.94l-3.3,0.47V33.55h2.79l0.28,1.73
			c1.57-1.26,3.81-2.12,6.33-2.12c3.77,0,5.58,2,5.58,5.86V46.84z"/>
		<path style="clip-path:url(#SVGID_00000062160532757691025980000002975607132496625341_);fill:#231F20;" d="M623.21,44.95h-4.87
			c-2.04,0-2.79,0.63-2.79,2.56c0,1.97,0.35,2.75,2.71,2.75c1.65,0,3.5-0.63,4.95-1.57V44.95z M626.51,52.69h-2.79l-0.2-1.42
			c-1.69,1.18-3.89,1.81-6.21,1.81c-3.58,0-5.07-2.12-5.07-5.5c0-3.97,2.01-5.38,5.86-5.38h5.11v-2.99c0-2.4-1.06-3.22-4.17-3.22
			c-1.85,0-4.25,0.31-5.74,0.63l-0.35-2.63c1.81-0.47,4.24-0.83,6.29-0.83c5.46,0,7.27,2.12,7.27,6.21V52.69z"/>
	</g>
	<polygon class="st6" points="513.89,52.69 513.89,44.41 505.37,44.41 505.37,52.69 501.99,52.69 501.99,33.3 505.37,33.3 
		505.37,41.59 513.89,41.59 513.89,33.3 517.27,33.3 517.27,52.69 	"/>
	<g>
		<defs>
			<rect id="SVGID_00000124148926034171233430000000123780096298467969_" x="3.49" y="0.88" width="623.02" height="74"/>
		</defs>
		<clipPath id="SVGID_00000118366372580395547670000014274845535093865658_">
			<use xlink:href="#SVGID_00000124148926034171233430000000123780096298467969_"  style="overflow:visible;"/>
		</clipPath>
		<path style="clip-path:url(#SVGID_00000118366372580395547670000014274845535093865658_);fill:#231F20;" d="M518.7,41.59h-2.73
			v2.75h2.61c3.22,0,4.61,0.48,4.61,2.54v0.52c0,2.48-1.38,2.54-4.61,2.54h-2.61v2.75h2.73c5.62,0,7.73-1.57,7.73-5.39v-0.28
			C526.43,43.15,524.32,41.59,518.7,41.59"/>
		<path style="clip-path:url(#SVGID_00000118366372580395547670000014274845535093865658_);fill:#CDD52A;" d="M221.92,45.9
			c1.09-16.83-8.54-31.15-21.51-31.99s-24.37,12.11-25.47,28.94c-1.09,16.83,8.54,31.15,21.51,31.99
			C209.43,75.68,220.83,62.73,221.92,45.9"/>
		<path style="clip-path:url(#SVGID_00000118366372580395547670000014274845535093865658_);fill:#E23628;" d="M223.29,55.4
			c5.46-13.65-3.44-30.04-19.88-36.61s-34.19-0.84-39.65,12.8c-5.46,13.65,3.44,30.04,19.88,36.61
			C200.09,74.77,217.84,69.04,223.29,55.4"/>
		<path style="clip-path:url(#SVGID_00000118366372580395547670000014274845535093865658_);fill:#2F95BE;" d="M227.57,43.93
			c0-11.22-9.32-20.32-20.81-20.32c-11.49,0-20.81,9.1-20.81,20.32s9.32,20.32,20.81,20.32C218.26,64.25,227.57,55.15,227.57,43.93"
			/>
		<path style="clip-path:url(#SVGID_00000118366372580395547670000014274845535093865658_);fill:#FFFFFF;" d="M218.93,43.93
			c0-11.22-9.1-20.32-20.32-20.32c-11.22,0-20.32,9.1-20.32,20.32s9.1,20.32,20.32,20.32C209.83,64.25,218.93,55.15,218.93,43.93"/>
		<path style="clip-path:url(#SVGID_00000118366372580395547670000014274845535093865658_);fill:#231F20;" d="M201.06,50.79
			c-3.01,0-5.69-1.11-6.48-3.44h-6.92c1.16,5.57,5.5,8.97,12.33,8.97c3.2,0,6.16-0.53,8.58-1.5l-0.97-4.99
			C205.62,50.45,203.58,50.79,201.06,50.79"/>
		<path style="clip-path:url(#SVGID_00000118366372580395547670000014274845535093865658_);fill:#231F20;" d="M283.12,34.59h-0.22
			l-3.47,7.67c-0.73,1.68-1.2,3.07-2.04,5.11c0,0,0.15-4.45,0.15-7.3v-5.48h-5.26v17.85h6.75c1.24-2.78,2.59-5.84,3.72-8.36
			c0.13-0.3,0.25-0.58,0.36-0.86V34.59z"/>
	</g>
	<rect x="284.44" y="34.59" class="st6" width="5.25" height="17.85"/>
	<g>
		<defs>
			<rect id="SVGID_00000058548799584670948640000007834556869289962132_" x="3.49" y="0.88" width="623.02" height="74"/>
		</defs>
		<clipPath id="SVGID_00000042720014917293973390000001352586547372122000_">
			<use xlink:href="#SVGID_00000058548799584670948640000007834556869289962132_"  style="overflow:visible;"/>
		</clipPath>
		<path style="clip-path:url(#SVGID_00000042720014917293973390000001352586547372122000_);fill:#231F20;" d="M305.99,34.74v8.15
			c0.01,0.2,0.02,0.4,0.02,0.61c0,3.21-1.39,5.37-3.54,5.37c-2.37,0-3.65-2.3-3.65-5.37c0-2.63,0.98-5.37,3.65-5.37
			c0.93,0,1.65,0.37,2.2,0.97v-4.72c-0.65-0.12-1.33-0.19-2.05-0.19c-5.73,0-9.53,3.69-9.53,9.46c0,5.77,4.02,9.2,9.24,9.2
			c4.78,0,9.42-2.99,9.42-9.53C311.74,39.15,309.54,35.96,305.99,34.74"/>
	</g>
	<polygon class="st6" points="324.99,41.05 320.69,41.05 320.69,34.59 315.14,34.59 315.14,52.44 320.69,52.44 320.69,45.36 
		324.99,45.36 	"/>
	<polygon class="st6" points="326.31,34.59 326.31,39.69 326.31,41.05 326.31,45.36 326.31,49.98 326.31,52.44 331.9,52.44 
		331.9,34.59 	"/>
	<g>
		<defs>
			<rect id="SVGID_00000064343177347043481620000000388757647836563642_" x="3.49" y="0.88" width="623.02" height="74"/>
		</defs>
		<clipPath id="SVGID_00000059296397450303321890000000992892245319086008_">
			<use xlink:href="#SVGID_00000064343177347043481620000000388757647836563642_"  style="overflow:visible;"/>
		</clipPath>
		<path style="clip-path:url(#SVGID_00000059296397450303321890000000992892245319086008_);fill:#231F20;" d="M347.12,34.59h-0.22
			l-3.47,7.67c-0.73,1.68-1.21,3.07-2.05,5.11c0,0,0.15-4.45,0.15-7.3v-5.48h-5.26v17.85h6.75c1.24-2.78,2.59-5.84,3.72-8.36
			c0.13-0.3,0.25-0.58,0.36-0.86V34.59z"/>
	</g>
	<rect x="348.45" y="34.59" class="st6" width="5.25" height="17.85"/>
	<rect x="369.18" y="34.59" class="st6" width="5.55" height="12.3"/>
	<polygon class="st6" points="365.44,48.21 363.63,48.21 363.63,34.59 358.08,34.59 358.08,52.44 372.1,52.44 372.28,58.21 
		376.44,58.21 376.7,48.21 369.18,48.21 	"/>
	<g>
		<defs>
			<rect id="SVGID_00000040553263798292729520000015177496535001788339_" x="3.49" y="0.88" width="623.02" height="74"/>
		</defs>
		<clipPath id="SVGID_00000123421976644944868020000002161950754609422490_">
			<use xlink:href="#SVGID_00000040553263798292729520000015177496535001788339_"  style="overflow:visible;"/>
		</clipPath>
		<path style="clip-path:url(#SVGID_00000123421976644944868020000002161950754609422490_);fill:#231F20;" d="M385.84,37.98
			c2.16,0,3.03,0.84,3.3,1.67c1.76-0.01,3.52-0.01,5.31-0.02c-0.64-3.13-2.79-5.45-7.64-5.45c-3.25,0-5.69,0.88-6.94,1.57l1.02,3.58
			C382.06,38.6,384.01,37.98,385.84,37.98"/>
		<path style="clip-path:url(#SVGID_00000123421976644944868020000002161950754609422490_);fill:#231F20;" d="M394.66,44.91
			c-1.84,0-3.64,0.01-5.4,0.02v1.01c0,0.33-0.04,0.66-0.11,0.95c-0.37,1.13-1.5,2.04-2.88,2.04c-1.24,0-2.19-0.69-2.19-2.12
			c0-2.01,1.98-2.75,4.62-2.81v-3.46c-6,0.1-10.09,2.32-10.09,6.82c0,2.85,2.15,5.48,5.77,5.48c2.12,0,3.94-0.77,5.11-2.19h0.11
			l0.33,1.79h5c-0.18-0.99-0.26-2.63-0.26-4.34V44.91z"/>
		<path style="clip-path:url(#SVGID_00000123421976644944868020000002161950754609422490_);fill:#231F20;" d="M395.97,40.54
			c-2.61,0-5.16,0.01-7.68,0.02v3.47c2.48-0.02,5.05-0.02,7.68-0.02"/>
	</g>
	<rect x="185.44" y="41.24" class="st6" width="12.99" height="5.04"/>
	<g>
		<defs>
			<rect id="SVGID_00000052802861242787286090000003529103689724895876_" x="3.49" y="0.88" width="623.02" height="74"/>
		</defs>
		<clipPath id="SVGID_00000060023797211721722740000017054925198330074008_">
			<use xlink:href="#SVGID_00000052802861242787286090000003529103689724895876_"  style="overflow:visible;"/>
		</clipPath>
		<path style="clip-path:url(#SVGID_00000060023797211721722740000017054925198330074008_);fill:#231F20;" d="M239.41,45.34
			c-0.21-0.58-0.43-1.18-0.67-1.82l-3.58-8.83h-6.28l7.99,16.48C237.62,49.71,238.51,47.6,239.41,45.34"/>
		<path style="clip-path:url(#SVGID_00000060023797211721722740000017054925198330074008_);fill:#231F20;" d="M244.59,34.69h5.84
			l-4.6,12.12c-1.5,3.83-3.03,7.56-4.86,9.82c-1.61,2.01-3.65,3.25-6.53,3.25c-1.28,0-2.04-0.15-2.74-0.4l0.4-4.45
			c0.44,0.11,1.02,0.18,1.83,0.18c1.72,0,2.96-1.17,3.4-2.3C239.74,48.53,244.59,34.69,244.59,34.69"/>
		<path style="clip-path:url(#SVGID_00000060023797211721722740000017054925198330074008_);fill:#231F20;" d="M199.32,31.54
			c-6.41,0-10.08,4.02-11.4,8.63h6.61c0.48-1.79,1.78-3.73,4.36-3.73c3.39,0,4.17,3.01,4.17,4.8h-17.61v5.04h24.2
			c0.1-0.53,0.24-1.65,0.24-2.91C209.89,37.51,206.98,31.54,199.32,31.54"/>
	</g>
	<polygon class="st6" points="262.35,34.59 262.35,42.4 262.35,45.98 262.35,47.57 262.35,52.69 267.9,52.69 267.9,34.59 	"/>
	<g>
		<defs>
			<rect id="SVGID_00000147204405692538845600000012089986449343701167_" x="3.49" y="0.88" width="623.02" height="74"/>
		</defs>
		<clipPath id="SVGID_00000008869170814789865270000012071431822906000052_">
			<use xlink:href="#SVGID_00000147204405692538845600000012089986449343701167_"  style="overflow:visible;"/>
		</clipPath>
		<path style="clip-path:url(#SVGID_00000008869170814789865270000012071431822906000052_);fill:#231F20;" d="M261.02,43.01
			c-0.35,0.09-0.72,0.15-1.09,0.15c-1.9,0-2.66-1.02-2.66-2.99v-5.59h-5.55v6.1c0,4.23,2.23,6.42,6.06,6.42
			c1.13,0,2.28-0.2,3.24-0.54V43.01z"/>
		<path style="clip-path:url(#SVGID_00000008869170814789865270000012071431822906000052_);" d="M61.99,32.62l2.88,9.5
			c0.31,1.1,0.71,2.56,0.94,3.59h0.16c0.24-1.06,0.55-2.48,0.83-3.62l2.4-9.46h6.38L71.09,45.3c-2.76,7.68-4.61,10.72-6.78,12.65
			c-2.05,1.81-4.26,2.48-5.75,2.64l-1.3-5.04c0.75-0.16,1.69-0.51,2.6-1.02c0.91-0.47,1.93-1.46,2.48-2.4
			c0.2-0.31,0.31-0.63,0.31-0.87c0-0.24-0.04-0.51-0.24-0.98l-7.09-17.65H61.99z"/>
		<path style="clip-path:url(#SVGID_00000008869170814789865270000012071431822906000052_);" d="M83.7,32.62v6.03
			c0,2.13,0.79,3.23,2.88,3.23c0.98,0,2.05-0.39,2.6-0.83v-8.43h5.99v19.54h-5.99v-7.25H89.1c-1.18,0.75-3.03,1.22-4.85,1.22
			c-4.14,0-6.54-2.36-6.54-6.93v-6.58H83.7z"/>
		<path style="clip-path:url(#SVGID_00000008869170814789865270000012071431822906000052_);" d="M105.57,32.62v5.91
			c0,3.07-0.16,5.24-0.31,7.84l0.16,0.04c0.91-2.21,1.42-3.7,2.21-5.52l3.74-8.27h7.33v19.27h-5.67v-5.87
			c0-2.99,0.16-4.25,0.35-8.31h-0.16c-0.75,2.09-1.22,3.35-2.01,5.16c-1.22,2.68-2.68,6.03-4.02,9.02h-7.29V32.62H105.57z"/>
		<path style="clip-path:url(#SVGID_00000008869170814789865270000012071431822906000052_);fill:#CCD42B;" d="M44.5,52
			c-7.26,7.26-17.94,8.34-23.87,2.41c-5.92-5.92-13.41-25.17-6.15-32.43c7.26-7.26,26.51,0.23,32.43,6.15
			C52.84,34.06,51.76,44.74,44.5,52"/>
		<path style="clip-path:url(#SVGID_00000008869170814789865270000012071431822906000052_);fill:#2E94BD;" d="M11.19,50.33
			c0-10.26,6.79-18.58,15.17-18.58c8.38,0,27.28,8.32,27.28,18.58s-18.9,18.58-27.28,18.58C17.98,68.91,11.19,60.59,11.19,50.33"/>
		<path style="clip-path:url(#SVGID_00000008869170814789865270000012071431822906000052_);fill:#FFFFFF;" d="M24.52,36.86
			c4.39-1.2,6.54,2.47,7.14,4.89l-8.76,2.39c-0.87,0.23-1.77,0.48-2.69,0.73C19.75,42.12,20.45,37.96,24.52,36.86 M38.22,50.88
			c-1.84,1.25-3.85,2.31-6.9,3.15c-4.23,1.15-8.42,0.11-9.86-4.55l2.35-0.64l0.01,0l15.08-4.11c-0.05-0.62-0.21-1.61-0.54-2.84
			c-1.56-5.72-6.24-11.92-14.69-9.61c-7.11,1.94-9.99,8.03-9.47,14.26c-3.43,0.95-6.91,1.93-10.06,2.78
			c0.57,1.44,1.47,2.82,2.63,4.12l8.44-2.28c2.51,7.01,8.63,10.26,16.57,8.09c3.74-1.02,6.66-2.56,8.64-4.14L38.22,50.88z"/>
		<path style="clip-path:url(#SVGID_00000008869170814789865270000012071431822906000052_);fill:#E03629;" d="M31.65,41.75
			c-0.6-2.42-2.75-6.09-7.14-4.89c-4.06,1.11-4.77,5.26-4.31,8.01c0.92-0.25,1.83-0.5,2.69-0.73L31.65,41.75z"/>
		<path style="clip-path:url(#SVGID_00000008869170814789865270000012071431822906000052_);fill:#E03629;" d="M30.77,27.4
			c-8.38,0-27.28,8.32-27.28,18.58c0,1.13,0.24,2.24,0.66,3.32c3.15-0.86,6.62-1.82,10.04-2.78c-0.52-6.23,2.36-12.32,9.47-14.26
			c8.45-2.3,13.13,3.89,14.69,9.61c0.34,1.23,0.49,2.22,0.54,2.84l-15.08,4.11l-0.01,0l-2.35,0.64c1.44,4.66,5.64,5.7,9.86,4.55
			c3.05-0.83,5.06-1.9,6.9-3.15l2.19,4.23c-1.98,1.58-4.9,3.12-8.64,4.14c-7.94,2.16-14.06-1.09-16.57-8.09l-8.43,2.27
			c5.78,6.56,17.79,11.14,24.01,11.14c8.38,0,15.17-8.32,15.17-18.58S39.15,27.4,30.77,27.4"/>
	</g>
</g>
</svg>
